<?xml version="1.0" encoding="UTF-8"?>
<svg id="Layer_1" data-name="Layer 1" xmlns="http://www.w3.org/2000/svg" viewBox="0 0 401 401">
  <defs>
    <style>
      .cls-1 {
        stroke: #000;
        stroke-miterlimit: 10;
      }

      .cls-2 {
        fill: none;
      }

      .cls-2, .cls-3 {
        stroke-width: 0px;
      }

      .cls-3 {
        fill: #fff;
      }
    </style>
  </defs>
  <path class="cls-1" d="M70.5.5h255c41.39,0,75,33.61,75,75v255c0,38.63-31.37,70-70,70H75.5c-41.39,0-75-33.61-75-75V70.5C.5,31.87,31.87.5,70.5.5Z"/>
  <g>
    <path class="cls-2" d="M198.37,225.41v1.46h45.17v-78.49h-.98c-17.94,27.59-29.66,46.26-44.19,77.03Z"/>
    <path class="cls-3" d="M299.4,226.73v-110.83c0-13.73-11.13-24.86-24.86-24.86h-63.26c-.5,0-.97.26-1.25.68-28.47,43.47-47.84,75.03-64,104.24-3.11,5.62-11.65,3.42-11.65-3v-100.46c0-.82-.67-1.49-1.49-1.49h-32.53c-13.73,0-24.86,11.13-24.86,24.86v169.25c0,13.73,11.13,24.86,24.86,24.86h32.53c.82,0,1.49-.67,1.49-1.49v-24.73c0-3.43,2.78-6.22,6.22-6.22h91.89c3.43,0,6.22,2.78,6.22,6.22v24.77c0,.82.67,1.49,1.49,1.49h34.35c13.73,0,24.86-11.13,24.86-24.86v-6.13c0-.82.67-1.49,1.49-1.49h12.18c6.87,0,12.43-5.57,12.43-12.43v-24.46c0-6.87-5.57-12.43-12.43-12.43h-12.18c-.82,0-1.49-.67-1.49-1.49ZM239.03,230.79h-53.18c-.82,0-1.49-.67-1.49-1.49h0c0-.22.05-.44.14-.64,17.99-38.06,32.54-61.24,54.79-95.45h1.21v96.09c0,.82-.67,1.49-1.49,1.49Z"/>
  </g>
</svg>