<?xml version="1.0" encoding="UTF-8"?>
<svg id="Layer_1" data-name="Layer 1" xmlns="http://www.w3.org/2000/svg" viewBox="0 0 250 219.01">
  <defs>
    <style>
      .cls-1 {
        fill: none;
      }

      .cls-1, .cls-2 {
        stroke-width: 0px;
      }

      .cls-2 {
        fill: #fff;
      }
    </style>
  </defs>
  <path class="cls-1" d="M122.87,134.42v1.46h45.17V57.4h-.98c-17.94,27.59-29.66,46.26-44.19,77.03Z"/>
  <path class="cls-2" d="M223.9,135.73V24.9C223.9,11.17,212.77.04,199.04.04h-63.26c-.5,0-.97.26-1.25.68-28.47,43.47-47.84,75.03-64,104.24-3.11,5.62-11.65,3.42-11.65-3V1.49c0-.82-.67-1.49-1.49-1.49H24.86C11.13,0,0,11.13,0,24.86v169.25c0,13.73,11.13,24.86,24.86,24.86h32.53c.82,0,1.49-.67,1.49-1.49v-24.73c0-3.43,2.78-6.22,6.22-6.22h91.89c3.43,0,6.22,2.78,6.22,6.22v24.77c0,.82.67,1.49,1.49,1.49h34.35c13.73,0,24.86-11.13,24.86-24.86v-6.13c0-.82.67-1.49,1.49-1.49h12.18c6.87,0,12.43-5.57,12.43-12.43v-24.46c0-6.87-5.57-12.43-12.43-12.43h-12.18c-.82,0-1.49-.67-1.49-1.49ZM163.53,139.8h-53.18c-.82,0-1.49-.67-1.49-1.49h0c0-.22.05-.44.14-.64,17.99-38.06,32.54-61.24,54.79-95.45h1.21v96.09c0,.82-.67,1.49-1.49,1.49Z"/>
</svg>